<svg xmlns="http://www.w3.org/2000/svg" viewBox="0 0 1451.0752 244.8135"><defs><style>.cls-1{fill:#1a1a1a;}</style></defs><g id="Ebene_2" data-name="Ebene 2"><path class="cls-1" d="M12.5,72.7908h0a12.5,12.5,0,0,1,12.5,12.5v74.23191a12.5,12.5,0,0,1-12.5,12.5h0a12.5,12.5,0,0,1-12.5-12.5V85.2908A12.5,12.5,0,0,1,12.5,72.7908Z"/><path class="cls-1" d="M62.5,56.00351h0a12.5,12.5,0,0,1,12.5,12.5V176.31a12.5,12.5,0,0,1-12.5,12.5h0A12.5,12.5,0,0,1,50,176.31V68.50351A12.5,12.5,0,0,1,62.5,56.00351Z"/><path class="cls-1" d="M112.5,9.62236h0a12.5,12.5,0,0,1,12.5,12.5v200.5688a12.5,12.5,0,0,1-12.5,12.5h0a12.5,12.5,0,0,1-12.5-12.5V22.12236A12.5,12.5,0,0,1,112.5,9.62236Z"/><path class="cls-1" d="M162.5,15.64341h0a12.5,12.5,0,0,1,12.5,12.5V216.6701a12.5,12.5,0,0,1-12.5,12.5h0a12.5,12.5,0,0,1-12.5-12.5V28.14341A12.5,12.5,0,0,1,162.5,15.64341Z"/><path class="cls-1" d="M212.5,9.61983h0a12.5,12.5,0,0,1,12.5,12.5V222.69367a12.5,12.5,0,0,1-12.5,12.5h0a12.5,12.5,0,0,1-12.5-12.5V22.11983A12.5,12.5,0,0,1,212.5,9.61983Z"/><path class="cls-1" d="M262.5,0h0A12.5,12.5,0,0,1,275,12.5V232.3135a12.5,12.5,0,0,1-12.5,12.5h0a12.5,12.5,0,0,1-12.5-12.5V12.5A12.5,12.5,0,0,1,262.5,0Z"/><path class="cls-1" d="M312.5,19.19675h0a12.5,12.5,0,0,1,12.5,12.5v181.42a12.5,12.5,0,0,1-12.5,12.5h0a12.5,12.5,0,0,1-12.5-12.5v-181.42A12.5,12.5,0,0,1,312.5,19.19675Z"/><path class="cls-1" d="M362.5,10.60557h0a12.5,12.5,0,0,1,12.5,12.5V221.70794a12.5,12.5,0,0,1-12.5,12.5h0a12.5,12.5,0,0,1-12.5-12.5V23.10557A12.5,12.5,0,0,1,362.5,10.60557Z"/><path class="cls-1" d="M412.5,11.80481h0a12.5,12.5,0,0,1,12.5,12.5V220.50869a12.5,12.5,0,0,1-12.5,12.5h0a12.5,12.5,0,0,1-12.5-12.5V24.30481A12.5,12.5,0,0,1,412.5,11.80481Z"/><path class="cls-1" d="M549.125,177.6067h-1a26.20521,26.20521,0,0,1-3.80029,7.89942,27.336,27.336,0,0,1-6.29981,6.40039,29.24609,29.24609,0,0,1-8.3999,4.20019,31.72962,31.72962,0,0,1-9.7002,1.5q-20.00171,0-30.20019-14.10058Q479.5249,169.407,479.5249,142.6067q0-26.79858,10.19971-40.7998,10.20044-13.99732,30.20019-14a30.53409,30.53409,0,0,1,18.1001,5.6001,24.60756,24.60756,0,0,1,10.1001,14.3999h1V47.2068h29.59961V195.20631H549.125Zm-19.40039-4q8.40015,0,13.90039-4.10058a13.31533,13.31533,0,0,0,5.5-11.29981V127.2068a13.32016,13.32016,0,0,0-5.5-11.2998q-5.50342-4.09717-13.90039-4.1001a18.1931,18.1931,0,0,0-13.8999,5.8999q-5.50269,5.90185-5.5,15.8999v18.2002q0,10.002,5.5,15.89941A18.18164,18.18164,0,0,0,529.72461,173.6067Z"/><path class="cls-1" d="M645.582,197.6067a55.40613,55.40613,0,0,1-21.3999-3.90039,44.12762,44.12762,0,0,1-15.90039-11,46.32087,46.32087,0,0,1-9.79981-17.2998,73.83569,73.83569,0,0,1-3.2998-22.79981,74.25279,74.25279,0,0,1,3.19971-22.5,47.82635,47.82635,0,0,1,9.5-17.2998,42.10491,42.10491,0,0,1,15.5-11.1001,53.36106,53.36106,0,0,1,21-3.8999q12.99828,0,22.30029,4.3999a42.14259,42.14259,0,0,1,15.19971,11.7998,47.59238,47.59238,0,0,1,8.60009,17.1001,75.38148,75.38148,0,0,1,2.7002,20.29981v8.7998H625.78174v1.58789q0,10.3125,5.6001,16.36231,5.59716,6.05127,17.60009,6.0498,9.197,0,15-3.66894a58.94833,58.94833,0,0,0,10.79981-8.82813l14.80029,18.4502a46.71989,46.71989,0,0,1-18.30029,12.835A67.53442,67.53442,0,0,1,645.582,197.6067Zm-.6001-88q-9,0-14.10009,5.8999-5.09986,5.90185-5.1001,15.7002v1.6001H662.582v-1.8003q0-9.59985-4.30029-15.5Q653.97877,109.60988,644.98193,109.6067Z"/><path class="cls-1" d="M709.541,195.20631V90.2068h29.60009v17.7998h1.2002a32.0402,32.0402,0,0,1,9.6001-14.2998q6.79688-5.89673,18.59961-5.8999,10.80029,0,18.40039,5.3999,7.59815,5.40015,11,15.7998h.59961a28.54427,28.54427,0,0,1,11.40039-15,38.36185,38.36185,0,0,1,9.3999-4.5A35.9013,35.9013,0,0,1,830.541,87.8069q15.197,0,23.30029,10.7998,8.09985,10.8003,8.1001,30.8003v65.79931h-29.6001V131.8069q0-19.99733-14.3999-20a20.39041,20.39041,0,0,0-12,3.7998q-5.40015,3.802-5.40039,11.6001v67.99951H770.94141V131.8069q0-19.99733-14.40039-20a22.46989,22.46989,0,0,0-6.29981.8999,16.04144,16.04144,0,0,0-5.6001,2.8999,15.066,15.066,0,0,0-4,4.8999,14.39123,14.39123,0,0,0-1.5,6.7002v67.99951Z"/><path class="cls-1" d="M926.62061,197.6067a53.32944,53.32944,0,0,1-20.69971-3.7998,41.26531,41.26531,0,0,1-15.40039-11,50.13646,50.13646,0,0,1-9.69971-17.40039,71.76807,71.76807,0,0,1-3.3999-22.79981,71.76585,71.76585,0,0,1,3.3999-22.7998,49.06964,49.06964,0,0,1,9.69971-17.3003A41.847,41.847,0,0,1,905.9209,91.6067a58.28286,58.28286,0,0,1,41.3999,0,41.8734,41.8734,0,0,1,15.3999,10.8999,49.11574,49.11574,0,0,1,9.7002,17.3003,71.86249,71.86249,0,0,1,3.3999,22.7998,71.86472,71.86472,0,0,1-3.3999,22.79981,50.18429,50.18429,0,0,1-9.7002,17.40039,41.29087,41.29087,0,0,1-15.3999,11A53.3544,53.3544,0,0,1,926.62061,197.6067Zm0-23.40039q8.79858,0,13.60009-5.39941,4.8003-5.40089,4.79981-15.40039V132.0066q0-9.99828-4.79981-15.3999-4.80029-5.40015-13.60009-5.3999-8.803,0-13.6001,5.3999-4.79956,5.40015-4.79981,15.3999v21.39991q0,10.00341,4.79981,15.40039Q917.8208,174.20632,926.62061,174.20631Z"/><path class="cls-1" d="M994.14014,148.6067V119.8069H1053.54v28.7998Z"/><path class="cls-1" d="M1075.11963,195.20631V90.2068h29.6001v17.7998h1.20019a32.0402,32.0402,0,0,1,9.6001-14.2998q6.79688-5.89673,18.59961-5.8999,10.80029,0,18.40039,5.3999,7.59815,5.40015,11,15.7998h.59961a28.54427,28.54427,0,0,1,11.40039-15,38.36185,38.36185,0,0,1,9.3999-4.5,35.9013,35.9013,0,0,1,11.19971-1.6997q15.197,0,23.30029,10.7998,8.09985,10.8003,8.1001,30.8003v65.79931h-29.6001V131.8069q0-19.99733-14.3999-20a20.39041,20.39041,0,0,0-12,3.7998q-5.40015,3.802-5.40039,11.6001v67.99951H1136.52V131.8069q0-19.99733-14.40039-20a22.46989,22.46989,0,0,0-6.29981.8999,16.0414,16.0414,0,0,0-5.60009,2.8999,15.06585,15.06585,0,0,0-4,4.8999,14.39123,14.39123,0,0,0-1.5,6.7002v67.99951Z"/><path class="cls-1" d="M1326.65918,195.20631a18.60932,18.60932,0,0,1-13.30078-5,22.96356,22.96356,0,0,1-6.69922-13.39941h-1.2002a24.277,24.277,0,0,1-10.60058,15.5q-8.20312,5.29688-20.19922,5.2998-15.80274,0-24.19971-8.37207-8.40087-8.37158-8.40039-22.13086,0-16.54687,12.1001-24.62207,12.09814-8.072,32.89941-8.0747h16.60059v-6.6001q0-7.59888-4-12.1001-4.00342-4.5-13.40039-4.5-8.80371,0-14,3.7998a37.55143,37.55143,0,0,0-8.59961,8.6001l-17.6001-15.6875a45.98035,45.98035,0,0,1,16.1001-14.78125q9.69726-5.32983,26.2998-5.33105,22.396,0,33.59961,9.7998,11.19873,9.802,11.2002,28.6001v45.99951h9.7998v23Zm-41-18.20019a24.24825,24.24825,0,0,0,12.69922-3.17481q5.29688-3.17284,5.30078-10.32129V151.20631h-14.40039q-17.39942,0-17.40039,11.71v2.97754q0,5.75683,3.60058,8.43457Q1279.05811,177.009,1285.65918,177.00612Z"/><path class="cls-1" d="M1358.27539,195.20631V90.2068H1387.876v17.7998h1.19922a32.1914,32.1914,0,0,1,9.80078-14.1997q6.99756-6,19.39941-6,16.19971,0,24.5,10.7998,8.29688,10.8003,8.29981,30.8003v65.79931h-29.59961V131.8069q0-10.20045-3.2002-15.1001-3.20069-4.89844-11.39941-4.8999a27.22626,27.22626,0,0,0-7,.8999,17.8064,17.8064,0,0,0-6.10059,2.8999,15.15877,15.15877,0,0,0-4.2998,4.8999,13.63419,13.63419,0,0,0-1.59961,6.7002v67.99951Z"/></g></svg>