<?xml version="1.0" encoding="utf-8" ?>
<svg baseProfile="full" height="100%" version="1.1" width="100%" xmlns="http://www.w3.org/2000/svg" xmlns:ev="http://www.w3.org/2001/xml-events" xmlns:xlink="http://www.w3.org/1999/xlink"><defs /><rect fill="#F58B44" height="48.38616190351326" rx="10" ry="10" width="15.0" x="0" y="75.80691904824337" /><rect fill="#F58B44" height="174.8080144835346" rx="10" ry="10" width="15.0" x="20" y="12.595992758232697" /><rect fill="#F58B44" height="185.65073051522208" rx="10" ry="10" width="15.0" x="40" y="7.17463474238896" /><rect fill="#F58B44" height="184.09258901228475" rx="10" ry="10" width="15.0" x="60" y="7.953705493857626" /><rect fill="#F58B44" height="184.88267170750055" rx="10" ry="10" width="15.0" x="80" y="7.5586641462497255" /><rect fill="#F58B44" height="185.69174116633093" rx="10" ry="10" width="15.0" x="100" y="7.154129416834536" /><rect fill="#F58B44" height="184.17618851646145" rx="10" ry="10" width="15.0" x="120" y="7.911905741769274" /><rect fill="#F58B44" height="184.66506337469608" rx="10" ry="10" width="15.0" x="140" y="7.6674683126519625" /><rect fill="#F58B44" height="184.1172265924287" rx="10" ry="10" width="15.0" x="160" y="7.941386703785653" /><rect fill="#F58B44" height="120.3126793731115" rx="10" ry="10" width="15.0" x="180" y="39.84366031344425" /><rect fill="#F58B44" height="114.15019666477716" rx="10" ry="10" width="15.0" x="200" y="42.92490166761142" /><rect fill="#F58B44" height="184.68380589959793" rx="10" ry="10" width="15.0" x="220" y="7.658097050201036" /><rect fill="#F58B44" height="185.91353588718783" rx="10" ry="10" width="15.0" x="240" y="7.043232056406083" /><rect fill="#F58B44" height="188.08556799592753" rx="10" ry="10" width="15.0" x="260" y="5.957216002036233" /><rect fill="#F58B44" height="169.77299050156304" rx="10" ry="10" width="15.0" x="280" y="15.113504749218478" /><rect fill="#F58B44" height="84.90139579117508" rx="10" ry="10" width="15.0" x="300" y="57.54930210441246" /><rect fill="#F58B44" height="83.43697659224063" rx="10" ry="10" width="15.0" x="320" y="58.28151170387969" /><rect fill="#F58B44" height="84.78318283456758" rx="10" ry="10" width="15.0" x="340" y="57.60840858271621" /><rect fill="#F58B44" height="85.43436550258598" rx="10" ry="10" width="15.0" x="360" y="57.28281724870701" /><rect fill="#F58B44" height="181.81111184713183" rx="10" ry="10" width="15.0" x="380" y="9.094444076434087" /><rect fill="#F58B44" height="184.65398087102724" rx="10" ry="10" width="15.0" x="400" y="7.673009564486378" /><rect fill="#F58B44" height="182.00927264375727" rx="10" ry="10" width="15.0" x="420" y="8.995363678121365" /><rect fill="#F58B44" height="180.9115491632867" rx="10" ry="10" width="15.0" x="440" y="9.544225418356646" /><rect fill="#F58B44" height="172.1450191551108" rx="10" ry="10" width="15.0" x="460" y="13.927490422444606" /><rect fill="#F58B44" height="192.6450603227848" rx="10" ry="10" width="15.0" x="480" y="3.677469838607607" /><rect fill="#F58B44" height="199.91693662503604" rx="10" ry="10" width="15.0" x="500" y="0.041531687481978" /><rect fill="#F58B44" height="200.0" rx="10" ry="10" width="15.0" x="520" y="0.0" /><rect fill="#F58B44" height="169.7698996600802" rx="10" ry="10" width="15.0" x="540" y="15.1150501699599" /><rect fill="#F58B44" height="183.5926795889685" rx="10" ry="10" width="15.0" x="560" y="8.203660205515746" /><rect fill="#F58B44" height="184.01742292803138" rx="10" ry="10" width="15.0" x="580" y="7.99128853598431" /><rect fill="#F58B44" height="183.10292028315973" rx="10" ry="10" width="15.0" x="600" y="8.448539858420133" /><rect fill="#F58B44" height="136.00034237242787" rx="10" ry="10" width="15.0" x="620" y="31.999828813786067" /></svg>