<?xml version="1.0" encoding="utf-8" ?>
<svg baseProfile="full" height="100%" version="1.1" width="100%" xmlns="http://www.w3.org/2000/svg" xmlns:ev="http://www.w3.org/2001/xml-events" xmlns:xlink="http://www.w3.org/1999/xlink"><defs /><rect fill="#F58B44" height="36.9573108520168" rx="10" ry="10" width="15.0" x="0" y="81.5213445739916" /><rect fill="#F58B44" height="93.44236484956187" rx="10" ry="10" width="15.0" x="20" y="53.278817575219065" /><rect fill="#F58B44" height="129.21974006756938" rx="10" ry="10" width="15.0" x="40" y="35.39012996621531" /><rect fill="#F58B44" height="148.76522432725733" rx="10" ry="10" width="15.0" x="60" y="25.617387836371336" /><rect fill="#F58B44" height="144.07337877186293" rx="10" ry="10" width="15.0" x="80" y="27.963310614068533" /><rect fill="#F58B44" height="122.12243455288119" rx="10" ry="10" width="15.0" x="100" y="38.938782723559406" /><rect fill="#F58B44" height="103.14263852220688" rx="10" ry="10" width="15.0" x="120" y="48.42868073889656" /><rect fill="#F58B44" height="103.76531916299056" rx="10" ry="10" width="15.0" x="140" y="48.11734041850472" /><rect fill="#F58B44" height="87.37348723891785" rx="10" ry="10" width="15.0" x="160" y="56.31325638054108" /><rect fill="#F58B44" height="94.0921910687252" rx="10" ry="10" width="15.0" x="180" y="52.9539044656374" /><rect fill="#F58B44" height="112.34574887923424" rx="10" ry="10" width="15.0" x="200" y="43.82712556038288" /><rect fill="#F58B44" height="70.76556265159385" rx="10" ry="10" width="15.0" x="220" y="64.61721867420307" /><rect fill="#F58B44" height="65.85757290585049" rx="10" ry="10" width="15.0" x="240" y="67.07121354707476" /><rect fill="#F58B44" height="82.13496246235307" rx="10" ry="10" width="15.0" x="260" y="58.93251876882346" /><rect fill="#F58B44" height="164.92687709007828" rx="10" ry="10" width="15.0" x="280" y="17.53656145496086" /><rect fill="#F58B44" height="198.43736558118565" rx="10" ry="10" width="15.0" x="300" y="0.7813172094071774" /><rect fill="#F58B44" height="200.0" rx="10" ry="10" width="15.0" x="320" y="0.0" /><rect fill="#F58B44" height="184.03047787167273" rx="10" ry="10" width="15.0" x="340" y="7.984761064163635" /><rect fill="#F58B44" height="190.21741497404125" rx="10" ry="10" width="15.0" x="360" y="4.891292512979376" /><rect fill="#F58B44" height="192.44106634082496" rx="10" ry="10" width="15.0" x="380" y="3.77946682958752" /><rect fill="#F58B44" height="196.94052343096598" rx="10" ry="10" width="15.0" x="400" y="1.529738284517009" /><rect fill="#F58B44" height="177.69633793186554" rx="10" ry="10" width="15.0" x="420" y="11.151831034067229" /><rect fill="#F58B44" height="161.84966794998462" rx="10" ry="10" width="15.0" x="440" y="19.07516602500769" /><rect fill="#F58B44" height="164.47227928230618" rx="10" ry="10" width="15.0" x="460" y="17.763860358846912" /><rect fill="#F58B44" height="164.62662070974176" rx="10" ry="10" width="15.0" x="480" y="17.68668964512912" /><rect fill="#F58B44" height="164.66331188435427" rx="10" ry="10" width="15.0" x="500" y="17.668344057822864" /><rect fill="#F58B44" height="132.352104901739" rx="10" ry="10" width="15.0" x="520" y="33.823947549130494" /><rect fill="#F58B44" height="111.21574444307576" rx="10" ry="10" width="15.0" x="540" y="44.39212777846212" /><rect fill="#F58B44" height="97.686142942866" rx="10" ry="10" width="15.0" x="560" y="51.156928528567" /><rect fill="#F58B44" height="91.29142307507834" rx="10" ry="10" width="15.0" x="580" y="54.35428846246083" /><rect fill="#F58B44" height="102.43980183020902" rx="10" ry="10" width="15.0" x="600" y="48.78009908489549" /><rect fill="#F58B44" height="37.98137452560245" rx="10" ry="10" width="15.0" x="620" y="81.00931273719877" /></svg>