<?xml version="1.0" encoding="utf-8" ?>
<svg baseProfile="full" height="100%" version="1.1" width="100%" xmlns="http://www.w3.org/2000/svg" xmlns:ev="http://www.w3.org/2001/xml-events" xmlns:xlink="http://www.w3.org/1999/xlink"><defs /><rect fill="#F58B44" height="23.55324510290078" rx="10" ry="10" width="15.0" x="0" y="88.22337744854961" /><rect fill="#F58B44" height="23.564151400366022" rx="10" ry="10" width="15.0" x="20" y="88.21792429981699" /><rect fill="#F58B44" height="153.72163488785583" rx="10" ry="10" width="15.0" x="40" y="23.139182556072086" /><rect fill="#F58B44" height="199.7056481077366" rx="10" ry="10" width="15.0" x="60" y="0.14717594613169638" /><rect fill="#F58B44" height="199.51670364015592" rx="10" ry="10" width="15.0" x="80" y="0.2416481799220378" /><rect fill="#F58B44" height="198.6833643152543" rx="10" ry="10" width="15.0" x="100" y="0.6583178423728526" /><rect fill="#F58B44" height="160.5537102842669" rx="10" ry="10" width="15.0" x="120" y="19.723144857866544" /><rect fill="#F58B44" height="44.421226305439184" rx="10" ry="10" width="15.0" x="140" y="77.78938684728041" /><rect fill="#F58B44" height="39.213065661873536" rx="10" ry="10" width="15.0" x="160" y="80.39346716906323" /><rect fill="#F58B44" height="175.33295206006773" rx="10" ry="10" width="15.0" x="180" y="12.333523969966137" /><rect fill="#F58B44" height="197.27902537533276" rx="10" ry="10" width="15.0" x="200" y="1.3604873123336176" /><rect fill="#F58B44" height="200.0" rx="10" ry="10" width="15.0" x="220" y="0.0" /><rect fill="#F58B44" height="199.60159877186365" rx="10" ry="10" width="15.0" x="240" y="0.19920061406817524" /><rect fill="#F58B44" height="199.73433783921394" rx="10" ry="10" width="15.0" x="260" y="0.13283108039303215" /><rect fill="#F58B44" height="197.35758938907148" rx="10" ry="10" width="15.0" x="280" y="1.321205305464261" /><rect fill="#F58B44" height="194.94869078890588" rx="10" ry="10" width="15.0" x="300" y="2.525654605547061" /><rect fill="#F58B44" height="195.15015642164124" rx="10" ry="10" width="15.0" x="320" y="2.424921789179379" /><rect fill="#F58B44" height="186.917768130868" rx="10" ry="10" width="15.0" x="340" y="6.541115934565994" /><rect fill="#F58B44" height="42.75404965023713" rx="10" ry="10" width="15.0" x="360" y="78.62297517488143" /><rect fill="#F58B44" height="70.31869116180458" rx="10" ry="10" width="15.0" x="380" y="64.84065441909772" /><rect fill="#F58B44" height="140.73566863637973" rx="10" ry="10" width="15.0" x="400" y="29.632165681810136" /><rect fill="#F58B44" height="189.7258550820961" rx="10" ry="10" width="15.0" x="420" y="5.137072458951948" /><rect fill="#F58B44" height="138.410120365266" rx="10" ry="10" width="15.0" x="440" y="30.794939817366995" /><rect fill="#F58B44" height="186.4589177727626" rx="10" ry="10" width="15.0" x="460" y="6.770541113618705" /><rect fill="#F58B44" height="197.51080806867054" rx="10" ry="10" width="15.0" x="480" y="1.244595965664729" /><rect fill="#F58B44" height="193.891744669815" rx="10" ry="10" width="15.0" x="500" y="3.0541276650924942" /><rect fill="#F58B44" height="192.71090817788368" rx="10" ry="10" width="15.0" x="520" y="3.6445459110581595" /><rect fill="#F58B44" height="106.26932227090823" rx="10" ry="10" width="15.0" x="540" y="46.86533886454588" /><rect fill="#F58B44" height="185.10401553545012" rx="10" ry="10" width="15.0" x="560" y="7.447992232274942" /><rect fill="#F58B44" height="173.28013359964922" rx="10" ry="10" width="15.0" x="580" y="13.35993320017539" /><rect fill="#F58B44" height="163.82142280485988" rx="10" ry="10" width="15.0" x="600" y="18.08928859757006" /><rect fill="#F58B44" height="162.50721516979095" rx="10" ry="10" width="15.0" x="620" y="18.746392415104523" /></svg>